<svg version="1.1" xmlns="http://www.w3.org/2000/svg" xmlns:xlink="http://www.w3.org/1999/xlink" width="48" height="48"><defs><linearGradient x1="-0.7708" y1="7.48612" x2="68.49132" y2="60.2344" gradientUnits="userSpaceOnUse" id="color-1"><stop offset="0.24" stop-color="#000000" stop-opacity="0.21"></stop><stop offset="1" stop-color="#000000" stop-opacity="0"></stop></linearGradient><filter id="dropshadow-base"><feColorMatrix type="matrix" values="0 0 0 0 0  0 0 0 0 0  0 0 0 0 0  0 0 0 .8 0"></feColorMatrix> <feOffset dx="0" dy="1"></feOffset> <feGaussianBlur stdDeviation="1"></feGaussianBlur> <feComposite in="SourceGraphic"></feComposite></filter><filter id="dropshadow-banner" x="-10%" y="-10%" width="120%" height="130%"><feColorMatrix type="matrix" values="0 0 0 0 0  0 0 0 0 0  0 0 0 0 0  0 0 0 .4 0"></feColorMatrix> <feOffset dx="0" dy="1"></feOffset> <feGaussianBlur stdDeviation="0.5"></feGaussianBlur> <feComposite in="SourceGraphic"></feComposite></filter></defs><g fill="none" fill-rule="nonzero" stroke="none" stroke-width="none" stroke-linecap="butt" stroke-linejoin="miter" stroke-miterlimit="10" stroke-dasharray="" stroke-dashoffset="0" font-family="none" font-weight="none" font-size="none" text-anchor="none" style="mix-blend-mode: normal"><path d="M2,24c0,-12.15026 9.84974,-22 22,-22c12.15026,0 22,9.84974 22,22c0,12.15026 -9.84974,22 -22,22c-12.15026,0 -22,-9.84974 -22,-22z" id="base 1 5" fill="#ff4242" stroke-width="1"></path><path d="M3.94744,26.35912l-1.9436,-1.9436c-0.00256,-0.1382 -0.00385,-0.27671 -0.00385,-0.41553c0,-2.47594 0.40901,-4.85636 1.16315,-7.07737h0.78431l-0.57869,-0.57869c1.27755,-3.44136 3.39152,-6.47629 6.09493,-8.85782h18.07498l15.33539,15.33539l2.35805,-2.36019l0.56918,0.56918c0.13103,0.97116 0.1987,1.96243 0.1987,2.9695c0,12.15026 -9.84974,22 -22,22c-11.35328,0 -20.69794,-8.59995 -21.87499,-19.64088z" fill="url(#color-1)" stroke-width="1"></path><path d="M27.53869,16.92263h-28.30949v4.71825h28.30949zM27.53869,7.48613h-28.30949v4.71825h28.30949zM-0.7708,31.07737h18.87299v-4.71825h-18.87299zM45.23212,20.46131l3.53869,3.53869l-16.50207,16.51387l-10.62785,-10.61606l3.53869,-3.53869l7.08917,7.07737z" fill="none" stroke-width="0"></path><path d="M27.53869,21.64088l-25.41368,0c0.17407,-1.63277 0.52676,-3.21216 1.03815,-4.71825h24.37553zM27.53869,12.20438l-22.11248,0c1.11882,-1.75806 2.48038,-3.34654 4.03749,-4.71825h18.07499zM18.10219,26.35912v4.71825l-14.93903,0c-0.51139,-1.50609 -0.86408,-3.08548 -1.03815,-4.71825zM45.23212,20.46131l0.56918,0.56918c0.13103,0.97116 0.1987,1.96243 0.1987,2.9695c0,1.00792 -0.06778,2.00001 -0.19903,2.97196l-13.53224,13.54191l-10.62785,-10.61606l3.53869,-3.53869l7.08917,7.07737z" fill="#ffffff" stroke-width="0"></path><path d="M2,24c0,-12.15026 9.84974,-22 22,-22c12.15026,0 22,9.84974 22,22c0,12.15026 -9.84974,22 -22,22c-12.15026,0 -22,-9.84974 -22,-22z" id="base 1 1 1" fill="none" stroke-width="1"></path><g fill="#000000" stroke-width="1" font-family="Roboto, sans-serif" font-weight="400" font-size="14" text-anchor="start"></g><rect x="2" y="2" width="44" height="22" fill="none" stroke-width="1"></rect><path d="M2,24v-22h44v22z" fill="none" stroke-width="1"></path><path d="M2,24v-22h44v22z" fill="none" stroke-width="1"></path><path d="M2,24v-22h44v22z" fill="none" stroke-width="1"></path><path d="M2,24v-22h44v22z" fill="none" stroke-width="1"></path></g></svg>